<svg xmlns="http://www.w3.org/2000/svg" viewBox="0 0 800 450"><defs><pattern id="blocks" width="170" height="145" patternUnits="userSpaceOnUse"><rect x="12" y="12" width="65" height="50" rx="7" fill="#ded8c9"/><rect x="92" y="12" width="62" height="50" rx="7" fill="#ded8c9"/><rect x="12" y="77" width="142" height="50" rx="7" fill="#e1dbcf"/></pattern></defs><rect width="800" height="450" fill="#efecdf"/><rect width="800" height="450" fill="url(#blocks)"/><path d="M-20 140H820M-20 335H820M330-20V480M650-20V480" stroke="#fffdf8" stroke-width="34"/><path d="M-20 140H820M-20 335H820" stroke="#d8d4c6" stroke-width="2" stroke-dasharray="8 10"/><rect x="35" y="180" width="260" height="125" rx="22" fill="#cbd8b7"/><path d="M55 235H275M166 195V285" stroke="#e5ebd9" stroke-width="9"/><g fill="#9cb587"><circle cx="65" cy="198" r="12"/><circle cx="270" cy="200" r="13"/><circle cx="65" cy="285" r="14"/><circle cx="270" cy="285" r="12"/></g><rect x="376" y="182" width="205" height="115" rx="12" fill="#e1b994" stroke="#b9845d" stroke-width="2"/><path d="M330 350V290Q330 250 380 250H457" stroke="#a95035" stroke-width="5" fill="none" stroke-dasharray="7 7"/><circle cx="330" cy="350" r="14" fill="#647751"/><path d="M324 350H336M330 344V356" stroke="#fff" stroke-width="2"/><path d="M480 174C447 174 433 199 438 221C442 239 480 270 480 270S517 239 522 221C528 199 512 174 480 174Z" fill="#a95035"/><circle cx="480" cy="211" r="21" fill="#fff7e8"/><text x="480" y="219" text-anchor="middle" font-family="Arial,sans-serif" font-size="27" fill="#a95035">✳</text><g font-family="Arial,sans-serif" font-size="15" fill="#6d7461"><text x="100" y="230">Центральный сквер</text><text x="405" y="117">ул. Мастерская</text><text x="490" y="372">Творческий проспект</text><text transform="translate(676 292) rotate(-90)">Тихий переулок</text></g><rect x="380" y="285" width="197" height="29" rx="8" fill="#fffdf8"/><text x="478" y="305" text-anchor="middle" font-family="Arial,sans-serif" font-size="13" fill="#775239">Вход со двора · дом 12</text><text x="260" y="388" font-family="Arial,sans-serif" font-size="12" fill="#65744e">Остановка «Сквер»</text><g transform="translate(730 45)"><circle r="23" fill="#fffdf8"/><path d="M0-17L6 9L0 5L-6 9Z" fill="#77836c"/><text x="0" y="-28" text-anchor="middle" font-family="Arial,sans-serif" font-size="11" fill="#77836c">С</text></g></svg>